<svg width="25" height="25" viewBox="0 0 25 25" fill="none" xmlns="http://www.w3.org/2000/svg">
<path d="M0 12.5C0 5.6 5.6 0 12.5 0C19.4 0 25 5.6 25 12.5C25 19.4 19.4 25 12.5 25C5.6 25 0 19.4 0 12.5ZM4.1001 19.6C4.0001 18.3 4.7001 17.4 5.6001 16.7C6.7001 16 7.9001 15.3 9.1001 14.8C9.3001 14.7 9.50007 14.6 9.70007 14.5C10.3001 14.2 10.5001 13.6 10.1001 13C10.0001 12.7 9.8001 12.5 9.6001 12.3C8.7001 11.1 8.10002 9.7 7.90002 8.2C7.80002 7.1 7.90002 6.10001 8.40002 5.10001C9.20002 3.40001 10.8001 2.7 12.7001 2.8C14.2001 2.9 15.4001 3.49999 16.2001 4.89999C16.7001 5.69999 16.8 6.49999 16.9 7.39999C16.9 9.19999 16.4 10.7 15.4 12.2C15.1 12.6 14.8001 13 14.7001 13.5C14.5001 14.1 14.7001 14.5 15.2001 14.8C15.4001 14.9 15.6 15 15.8 15.1C16.3 15.3 16.8 15.5 17.3 15.7C18.2 16.1 19.1 16.5 19.8 17.2C20.3 17.7 20.7 18.2 20.8 19C20.8 19.2 20.8 19.5 20.8 19.7C24.2 15.9 24.5001 9.3 20.2001 4.8C15.9001 0.400003 8.70002 0.499994 4.40002 4.89999C0.300025 9.29999 0.800098 15.8 4.1001 19.6Z" fill="#F0B9C7"/>
</svg>
