<svg width="280" height="48" viewBox="0 0 280 48" fill="none" xmlns="http://www.w3.org/2000/svg">
<path d="M274.043 0.0078125H280V47.5046H274.043V19.9971H261.985V0.0078125H267.943V17.7376H274.05L274.043 0.0078125Z" fill="#CC1746"/>
<path d="M217.582 0.0078125V12.0313C217.535 13.4186 217.032 14.7518 216.151 15.8242C215.282 16.8559 214.207 17.6948 212.995 18.2872C211.766 18.9045 210.454 19.3432 209.101 19.59C207.927 19.8219 206.735 19.9491 205.538 19.97V45.279H211.645V29.7136H217.596V47.5046H199.561V17.7376H205.511C206.325 17.8122 207.145 17.7083 207.914 17.433C208.683 17.1578 209.383 16.7179 209.965 16.1441C210.546 15.5703 210.996 14.8764 211.281 14.1109C211.567 13.3455 211.682 12.5269 211.618 11.7124V2.26727H205.511V12.1263H199.561V0.0078125H217.582Z" fill="#CC1746"/>
<path d="M238.461 35.7796C238.498 36.6331 238.355 37.4848 238.041 38.2795C237.728 39.0743 237.252 39.7945 236.643 40.3936C235.438 41.5555 234.006 42.4543 232.436 43.0331V47.4774H226.411V43.0331C224.846 42.4586 223.415 41.5722 222.204 40.4275C221.592 39.8239 221.114 39.098 220.802 38.297C220.489 37.4961 220.35 36.6382 220.392 35.7796V0.0078125H238.461V35.7796ZM229.416 41.2078C230.361 40.7678 231.14 40.0381 231.642 39.1247C232.186 38.1051 232.457 36.9621 232.429 35.8068V2.26727H226.322V35.7796C226.294 36.935 226.565 38.078 227.109 39.0976C227.623 40.0373 228.435 40.7796 229.416 41.2078Z" fill="#CC1746"/>
<path d="M259.197 0.0078125V12.0313C259.144 13.4187 258.639 14.7509 257.758 15.8242C256.89 16.8541 255.818 17.6928 254.61 18.2872C253.378 18.9045 252.064 19.3432 250.708 19.59C249.534 19.8219 248.342 19.9491 247.146 19.97V45.279H253.253V29.7136H259.21V47.5046H241.195V17.7376H247.146C247.96 17.8122 248.78 17.7083 249.549 17.433C250.318 17.1578 251.018 16.7179 251.6 16.1441C252.181 15.5703 252.63 14.8764 252.916 14.1109C253.201 13.3455 253.316 12.5269 253.253 11.7124V2.26727H247.146V12.1263H241.195V0.0078125H259.197Z" fill="#CC1746"/>
<path d="M64.0869 0.0078125V15.5053H60.165V11.848C59.8997 12.0706 59.608 12.2598 59.2965 12.4112C58.9504 12.5526 58.5777 12.6174 58.2041 12.6012V15.4646H54.2822V5.81598H58.2041C58.4632 5.82241 58.7208 5.77576 58.9612 5.6789C59.2016 5.58205 59.4196 5.43704 59.6019 5.2528C59.7861 5.07054 59.9311 4.8525 60.028 4.61212C60.1248 4.37175 60.1715 4.11411 60.165 3.85504V0.991641H58.2041V4.00429H54.2822V0.0078125H64.0869ZM60.165 5.96524C59.9208 6.21489 59.6241 6.40725 59.2965 6.52843C58.9513 6.67305 58.5779 6.73797 58.2041 6.71839V11.6988C58.4638 11.7055 58.7221 11.6584 58.9627 11.5603C59.2033 11.4622 59.4209 11.3153 59.6019 11.1288C59.7821 10.952 59.9248 10.7408 60.0215 10.5076C60.1183 10.2744 60.1671 10.0242 60.165 9.77175V5.96524Z" fill="black"/>
<path d="M70.0373 3.97037H66.1222V0.0078125H81.8029V3.97037H77.9217V0.950931H75.9201V15.5053H71.9982V0.950931H70.0373V3.97037Z" fill="black"/>
<path d="M99.4789 0.0078125V15.5053H95.5977V2.68795C95.3202 2.65952 95.0399 2.69558 94.7786 2.79327C94.5173 2.89095 94.2822 3.04764 94.0914 3.25114C93.784 3.6511 93.6234 4.14462 93.6368 4.6489V15.4646H89.7217V4.68282C89.73 4.19175 89.5696 3.7127 89.2671 3.32577C89.0751 3.12351 88.8399 2.96721 88.5791 2.86852C88.3183 2.76983 88.0385 2.73132 87.7607 2.75583V15.5731H83.8389V0.0078125H87.72V1.96872C88.4797 1.95601 89.2381 2.03347 89.9795 2.19943C90.5531 2.32393 91.1108 2.51287 91.6419 2.76262C92.1711 2.51388 92.7264 2.32497 93.2975 2.19943C94.0413 2.03388 94.8019 1.95643 95.5638 1.96872V0.0078125H99.4789Z" fill="black"/>
<path d="M111.352 0.0078125V15.5053H107.396V11.848C107.131 12.0706 106.839 12.2598 106.528 12.4112C106.182 12.5526 105.809 12.6174 105.436 12.6012V15.4646H101.514V5.81598H105.436C105.691 5.82049 105.946 5.77397 106.183 5.67915C106.421 5.58433 106.638 5.44308 106.82 5.26369C107.003 5.0843 107.148 4.87036 107.247 4.63432C107.346 4.39829 107.397 4.14489 107.396 3.88896V1.0256H105.436V4.03821H101.514V0.0417305L111.352 0.0078125ZM107.43 5.96524C107.186 6.21489 106.889 6.40725 106.562 6.52843C106.217 6.67305 105.843 6.73797 105.469 6.71839V11.6988C105.728 11.7024 105.985 11.6542 106.224 11.5569C106.464 11.4597 106.681 11.3154 106.864 11.1326C107.047 10.9497 107.191 10.7321 107.289 10.4926C107.386 10.253 107.434 9.99636 107.43 9.73784V5.96524Z" fill="black"/>
<path d="M119.23 0.0078125H123.118V15.5053H119.23V6.68447H117.276V15.5053H113.388V0.0078125H117.31V5.81598H119.264L119.23 0.0078125Z" fill="black"/>
<path d="M125.154 0.0078125H134.952V15.5053H125.154V0.0078125ZM129.069 14.5621H131.03V0.950931H129.069V14.5621Z" fill="black"/>
<path d="M146.792 0.0078125V3.92967H141.886C141.76 3.91585 141.633 3.93271 141.514 3.97878C141.396 4.02486 141.291 4.0988 141.208 4.1943C141.121 4.27611 141.053 4.37518 141.007 4.48507C140.962 4.59495 140.94 4.71319 140.943 4.83212C140.93 4.95808 140.948 5.08523 140.994 5.20318C141.04 5.32113 141.113 5.42652 141.208 5.51064C141.295 5.60051 141.401 5.67062 141.518 5.71626C141.635 5.7619 141.761 5.78202 141.886 5.77527H146.826V15.4985H136.987V0.0078125H146.792ZM142.87 2.98651V0.950931H140.909V3.21043C141.197 3.04676 141.521 2.95592 141.852 2.9458H142.87V2.98651ZM141.852 6.71839C141.519 6.72567 141.19 6.63359 140.909 6.4538V14.5961H142.87V6.71839H141.852Z" fill="black"/>
<path d="M148.827 15.5053V0.0078125H158.591V3.97037H154.703V0.950931H152.742V14.5621H154.737V9.73784H158.625V15.5053H148.827Z" fill="black"/>
<path d="M166.503 0.0078125H170.425V3.97038L165.485 3.92967C165.36 3.92421 165.235 3.94494 165.118 3.9905C165.001 4.03606 164.895 4.10547 164.807 4.1943C164.722 4.27711 164.654 4.37637 164.609 4.48602C164.563 4.59567 164.541 4.71341 164.542 4.83212C164.532 4.95786 164.551 5.08425 164.596 5.20178C164.642 5.3193 164.714 5.42489 164.807 5.51064C164.895 5.59947 165.001 5.66888 165.118 5.71444C165.235 5.76 165.36 5.78073 165.485 5.77527H170.425V15.4985H166.503V6.71839H165.485C165.152 6.72445 164.824 6.63247 164.542 6.4538V15.4646H160.62V0.0078125H164.542V3.25114C164.821 3.06741 165.151 2.97494 165.485 2.98651H166.503V0.0078125Z" fill="black"/>
<path d="M178.344 0.0078125H182.259V15.5053H178.344V5.96524C178.098 6.21352 177.802 6.40567 177.475 6.52843C177.129 6.66961 176.756 6.73439 176.383 6.71839V15.5392H172.461V0.0078125H176.383V5.81598C176.635 5.81805 176.885 5.76924 177.119 5.67249C177.352 5.57573 177.563 5.43299 177.74 5.2528C177.924 5.06993 178.069 4.85196 178.167 4.61183C178.265 4.37171 178.313 4.11434 178.31 3.85504L178.344 0.0078125Z" fill="black"/>
<path d="M190.136 3.96935V0.94991H188.182V3.81331C188.144 4.34935 188.32 4.87862 188.671 5.28569C188.86 5.46777 189.085 5.60876 189.331 5.69983C189.578 5.79091 189.84 5.83012 190.102 5.81496H190.136V6.75808H190.102C189.839 6.72771 189.573 6.7579 189.323 6.84634C189.073 6.93477 188.847 7.07912 188.662 7.26834C188.477 7.45756 188.337 7.68666 188.254 7.93809C188.171 8.18952 188.146 8.45664 188.182 8.71903V14.5951H190.136V9.73682H194.058V15.5382H184.26V8.75295C184.253 8.47182 184.331 8.19516 184.484 7.95908C184.63 7.70113 184.821 7.47133 185.047 7.28056C185.312 7.06589 185.604 6.88784 185.916 6.75129C186.26 6.59183 186.613 6.45362 186.974 6.3374C186.288 6.15559 185.645 5.83455 185.088 5.39424C184.843 5.22659 184.643 5.00184 184.505 4.73936C184.366 4.47689 184.294 4.18463 184.294 3.88793V0H194.133V3.96256L190.136 3.96935Z" fill="black"/>
<path d="M64.84 20.5215H71.5845V27.3067H63.069C62.8557 27.2985 62.6432 27.3381 62.4471 27.4227C62.2511 27.5072 62.0764 27.6345 61.9359 27.7953C61.7813 27.9392 61.6581 28.1136 61.574 28.3074C61.4899 28.5012 61.4468 28.7104 61.4474 28.9216C61.4391 29.135 61.4788 29.3475 61.5633 29.5435C61.6478 29.7396 61.7751 29.9143 61.9359 30.0548C62.0852 30.2019 62.2623 30.3178 62.4568 30.3959C62.6513 30.4739 62.8595 30.5125 63.069 30.5094H71.5845V47.2825H64.7993L64.84 32.131H63.069C62.5024 32.1307 61.9449 31.9884 61.4474 31.7171L61.4066 47.3164H54.6621V20.5554H61.4474V26.1668C61.9346 25.8669 62.497 25.7116 63.069 25.719H64.84V20.5215Z" fill="black"/>
<path d="M75.0508 47.3154V37.2936H81.836V45.6598H85.2287V33.7449C85.235 33.5355 85.1986 33.327 85.1216 33.1322C85.0445 32.9374 84.9286 32.7603 84.7808 32.6118C84.64 32.4514 84.4653 32.3243 84.2693 32.2398C84.0733 32.1553 83.861 32.1155 83.6477 32.1232H75.0915V20.5137H81.8767V30.5015H83.6884C84.2418 30.5044 84.7856 30.6468 85.2694 30.9155V20.5205H92.0139L91.98 47.3154H75.0508Z" fill="black"/>
<path d="M112.412 20.5938L112.371 47.3548H105.626V30.8463C105.19 31.274 104.68 31.6189 104.12 31.864C103.518 32.0948 102.878 32.2099 102.234 32.2033L102.2 47.3548H95.4824L95.5231 30.5817H102.268C102.715 30.5871 103.158 30.5031 103.572 30.3345C103.986 30.166 104.363 29.9163 104.679 29.6002C104.995 29.284 105.245 28.9078 105.413 28.4937C105.582 28.0797 105.666 27.6361 105.66 27.189V22.2086H102.268V27.4061H95.5231V20.6209L112.412 20.5938Z" fill="black"/>
<path d="M14.243 37.9068L23.7337 47.3976L33.3061 37.8252L43.0756 47.6015L47.6306 43.0465L37.8543 33.2702L47.3859 23.8202L37.8951 14.2887L47.6646 4.55995L43.1164 0.0117188L33.3469 9.78123L23.7745 0.215675L14.2837 9.70644L4.58902 0.0117188L0.0407913 4.56674L9.69473 14.2207L0.122374 23.7862L9.69473 33.3586L0 43.0465L4.55503 47.6015L14.2498 37.9068H14.243ZM23.7745 38.4167L18.798 33.4402L23.8561 28.382L28.8326 33.3586L23.7745 38.4167ZM38.3234 23.827L33.3469 28.8036L28.3703 23.827L33.3469 18.8505L38.3234 23.827ZM23.7745 9.23734L28.8326 14.2955L23.8561 19.272L18.798 14.2139L23.7745 9.23734ZM9.18483 23.827L14.243 18.7689L19.3011 23.827L14.243 28.8851L9.18483 23.827Z" fill="#CC1746"/>
<path d="M132.801 20.6289V47.3967H126.016V41.1C125.569 41.5041 125.061 41.834 124.51 42.0771C123.909 42.3111 123.268 42.4263 122.623 42.4164V47.3967H115.879L115.92 30.6168H122.664C123.112 30.6242 123.556 30.5414 123.971 30.3735C124.386 30.2056 124.763 29.956 125.079 29.6395C125.396 29.323 125.646 28.9461 125.813 28.5311C125.981 28.1162 126.064 27.6717 126.057 27.2242V22.2506H122.664V27.4549H115.92V20.6289H132.801ZM126.016 30.8814C125.582 31.3113 125.071 31.6565 124.51 31.8992C123.909 32.1332 123.268 32.2484 122.623 32.2385V40.7947C123.071 40.802 123.515 40.7193 123.93 40.5514C124.345 40.3835 124.722 40.1339 125.039 39.8174C125.355 39.5009 125.605 39.1239 125.773 38.709C125.941 38.2941 126.023 37.8496 126.016 37.4021V30.8814Z" fill="black"/>
<path d="M146.454 20.668H153.198L153.157 47.429H146.413L146.454 33.8992C146.458 33.6894 146.42 33.4809 146.342 33.2861C146.264 33.0914 146.147 32.9145 145.999 32.7661C145.858 32.6057 145.683 32.4786 145.487 32.3941C145.291 32.3096 145.079 32.2698 144.866 32.2776H136.31L136.35 20.668H143.095V30.6559H144.906C145.46 30.6587 146.004 30.8011 146.487 31.0698L146.454 20.668Z" fill="black"/>
<path d="M166.843 20.7031H173.628V27.5291L165.106 27.4884C164.892 27.482 164.68 27.523 164.484 27.6087C164.288 27.6943 164.113 27.8224 163.973 27.9837C163.818 28.1276 163.695 28.302 163.611 28.4958C163.527 28.6896 163.484 28.8987 163.484 29.11C163.476 29.3233 163.516 29.5357 163.601 29.7316C163.685 29.9276 163.812 30.1024 163.973 30.2432C164.28 30.5312 164.685 30.6934 165.106 30.6978H173.628L173.587 47.4709H166.809V32.3127H165.072C164.505 32.3149 163.947 32.1725 163.45 31.8988V47.5049H156.665L156.706 20.737H163.45V26.3552C163.937 26.0533 164.499 25.8956 165.072 25.9006H166.843V20.7031Z" fill="black"/>
<path d="M187.239 20.7441H193.984L193.95 47.5052H187.199L187.239 30.9966C186.801 31.4252 186.288 31.7701 185.726 32.0144C185.127 32.2451 184.489 32.3602 183.847 32.3537L183.806 47.5052H177.062V20.7441H183.847L183.806 30.732C184.25 30.7392 184.691 30.6578 185.103 30.4924C185.516 30.327 185.891 30.081 186.207 29.7689C186.523 29.4567 186.773 29.0847 186.943 28.6745C187.114 28.2643 187.201 27.8242 187.199 27.3801L187.239 20.7441Z" fill="black"/>
</svg>
