<svg width="25" height="27" viewBox="0 0 25 27" fill="none" xmlns="http://www.w3.org/2000/svg">
<path d="M21.4 26.1003C15.3 26.1003 9.19998 26.1003 3.09998 26.1003C2.79998 26.0003 2.50001 26 2.20001 25.8C0.900012 25.2 0.200012 24.1003 0.200012 22.6003C0.200012 18.2003 0.200012 13.9002 0.200012 9.50024C0.200012 8.40024 0.200012 7.30044 0.200012 6.20044C0.200012 4.60044 1.19999 3.20015 2.79999 2.90015C3.29999 2.80015 3.9 2.80005 4.5 2.80005C4.6 2.80005 4.69999 2.80005 4.79999 2.80005C4.79999 2.60005 4.79999 2.30034 4.79999 2.10034C4.79999 1.50034 5 1.10015 5.5 0.900146C5.6 0.900146 5.80002 0.900146 5.90002 0.900146C6.40002 1.10015 6.59998 1.60034 6.59998 2.10034C6.59998 2.30034 6.59998 2.50044 6.59998 2.70044C10.3 2.70044 14 2.70044 17.7 2.70044C17.7 2.50044 17.7 2.20024 17.7 2.00024C17.7 1.80024 17.7 1.70024 17.8 1.50024C17.9 1.20024 18.2 1.00015 18.4 0.900146C18.5 0.900146 18.7 0.900146 18.8 0.900146C19.4 1.10015 19.6 1.50034 19.5 2.10034C19.5 2.30034 19.5 2.50005 19.5 2.80005C20 2.80005 20.4 2.80005 20.8 2.80005C21.2 2.80005 21.6 2.90024 22 3.00024C23.3 3.50024 24.1 4.70044 24.1 6.20044C24.1 9.70044 24.1 13.2004 24.1 16.7004C24.1 18.6004 24.1 20.6002 24.1 22.5002C24.1 24.1002 23.1 25.4 21.7 25.8C21.7 26 21.6 26.1003 21.4 26.1003ZM2.09998 10.8C2.09998 10.9 2.09998 11.0002 2.09998 11.0002C2.09998 14.9002 2.09998 18.7003 2.09998 22.6003C2.09998 23.6003 2.70001 24.2004 3.70001 24.2004C9.40001 24.2004 15.2 24.2004 20.9 24.2004C21.9 24.2004 22.5 23.6003 22.5 22.6003C22.5 18.7003 22.5 14.9002 22.5 11.0002C22.5 10.9002 22.5 10.8004 22.5 10.7004C15.7 10.8004 8.89998 10.8 2.09998 10.8ZM6.70001 4.80005C6.70001 5.10005 6.70001 5.40005 6.70001 5.80005C6.70001 6.20005 6.4 6.50034 6 6.60034C5.4 6.80034 4.79999 6.30044 4.79999 5.70044C4.79999 5.40044 4.79999 5.10005 4.79999 4.80005C4.39999 4.80005 3.99998 4.80005 3.59998 4.80005C2.59998 4.80005 2 5.40015 2 6.40015C2 7.20015 2 7.90044 2 8.70044C2 8.80044 2 8.90015 2 8.90015C8.8 8.90015 15.6 8.90015 22.3 8.90015C22.3 7.90015 22.3 7.00024 22.3 6.00024C22.3 5.40024 21.9 5.00005 21.3 4.80005C20.7 4.70005 20.1 4.70044 19.6 4.70044C19.6 5.00044 19.6 5.30034 19.6 5.60034C19.6 6.20034 19.2 6.60034 18.7 6.60034C18.2 6.60034 17.8 6.20034 17.8 5.60034C17.8 5.30034 17.8 5.10005 17.8 4.80005C14.1 4.80005 10.4 4.80005 6.70001 4.80005Z" fill="black"/>
</svg>
