<svg width="26" height="26" viewBox="0 0 26 26" fill="none" xmlns="http://www.w3.org/2000/svg">
<path d="M3.79987 0.299988C3.89987 0.299988 3.8999 0.399988 3.8999 0.399988C6.8999 3.39999 9.79987 6.29999 12.7999 9.29999L12.8999 9.39999C12.9999 9.29999 12.9999 9.29999 13.0999 9.29999C16.0999 6.29999 18.9999 3.39999 21.9999 0.399988L22.0999 0.299988C22.1999 0.399988 22.1999 0.399989 22.2999 0.499989C23.2999 1.59999 24.3999 2.59999 25.4999 3.69999C25.5999 3.79999 25.5999 3.79999 25.6999 3.89999C22.6999 6.89999 19.5999 9.99999 16.5999 13C19.5999 16 22.6999 19.1 25.6999 22.1C24.4999 23.3 23.3999 24.4 22.0999 25.7C19.0999 22.7 15.9999 19.6 12.9999 16.6C9.99988 19.6 6.8999 22.7 3.8999 25.7C2.7999 24.6 1.69985 23.5 0.599854 22.4C0.499854 22.3 0.499902 22.3 0.399902 22.2C0.399902 22.2 0.499878 22.2 0.499878 22.1C3.49988 19.1 6.3999 16.2 9.3999 13.2L9.49988 13.1C9.39988 13 9.3999 13 9.3999 12.9C6.3999 9.89999 3.49988 6.99999 0.499878 3.99999L0.399902 3.89999L0.499878 3.79999C1.59988 2.69999 2.69987 1.59999 3.79987 0.499989C3.69987 0.399989 3.79987 0.299988 3.79987 0.299988Z" fill="black"/>
</svg>
