<svg width="23" height="24" viewBox="0 0 23 24" fill="none" xmlns="http://www.w3.org/2000/svg">
<path d="M13 0.100098C13.4 0.300098 13.5 0.6 13.5 1C13.5 3.9 13.5 6.90005 13.5 9.80005C13.5 9.90005 13.5 10.0001 13.5 10.1001C13.6 10.1001 13.7 10.1001 13.8 10.1001C14.6 10.1001 15.5 10.1001 16.3 10.1001C16.6 10.1001 16.9 10.2 17.1 10.5C17.3 10.8 17.1 11.0999 16.9 11.3999C15.3 13.2999 13.6 15.1 12 17C11.6 17.4 11.2 17.4 10.8 17C9.19997 15.1 7.50001 13.2999 5.90001 11.3999C5.70001 11.0999 5.59999 10.9 5.69999 10.5C5.79999 10.2 6.09998 10.1001 6.49998 10.1001C7.39998 10.1001 8.29999 10.1001 9.2 10.1001C9.2 10.0001 9.2 9.90005 9.2 9.80005C9.2 6.90005 9.2 3.9 9.2 1C9.2 0.6 9.29999 0.200098 9.7 0.100098C10.8 0.100098 11.9 0.100098 13 0.100098Z" fill="#CC1746"/>
<path d="M1.79999 23.1001C1.39999 23.0001 0.999988 22.8 0.799988 22.3C0.699988 22.1 0.599976 21.9001 0.599976 21.6001C0.599976 19.7001 0.599976 17.8 0.599976 16V15.8999C1.49998 15.8999 2.5 15.8999 3.5 15.8999C3.5 17.2999 3.5 18.7 3.5 20.2C8.8 20.2 14 20.2 19.3 20.2C19.3 18.8 19.3 17.3999 19.3 15.8999C20.3 15.8999 21.2 15.8999 22.2 15.8999C22.2 15.9999 22.2 16.1 22.2 16.2C22.2 17.9 22.2 19.5999 22.2 21.3999C22.2 22.3999 22 22.8 21 23.2C14.6 23.1 8.19999 23.1001 1.79999 23.1001Z" fill="#CC1746"/>
</svg>
