<svg width="30" height="30" viewBox="0 0 30 30" fill="none" xmlns="http://www.w3.org/2000/svg">
<path d="M2.1 2.1C-1.43051e-06 4.2 0 7.6 0 14.4V15.6C0 22.4 -1.43051e-06 25.8 2.1 27.9C4.2 30 7.6 30 14.4 30H15.6C22.4 30 25.8 30 27.9 27.9C30 25.8 30 22.4 30 15.6V14.4C30 7.6 30 4.2 27.9 2.1C25.8 -1.43051e-06 22.4 0 15.6 0H14.4C7.6 0 4.2 -1.43051e-06 2.1 2.1Z" fill="white"/>
<path d="M15 7.72505C16.225 7.72505 17.225 8.72505 17.225 9.95005C17.225 11.1751 16.225 12.1625 15 12.1625C13.775 12.1625 12.775 11.1626 12.775 9.95005C12.7875 8.71255 13.775 7.72505 15 7.72505ZM15 15.3C17.9625 15.3 20.3625 12.9 20.3625 9.93755C20.3625 6.98755 17.9625 4.57505 15 4.57505C12.05 4.57505 9.6375 6.97505 9.6375 9.93755C9.6375 12.9 12.05 15.3 15 15.3Z" fill="#CC1746"/>
<path d="M17.175 19.675C18.2625 19.425 19.3125 19.0001 20.2875 18.3876C21.025 17.9251 21.2375 16.95 20.775 16.225C20.3125 15.4875 19.35 15.275 18.6125 15.725C16.4125 17.1 13.5875 17.1 11.4 15.725C10.6625 15.2625 9.70001 15.4875 9.23751 16.225C8.77501 16.9625 9 17.9251 9.725 18.3876C10.7 19.0001 11.75 19.425 12.8375 19.675L9.8375 22.675C9.225 23.2875 9.225 24.2875 9.8375 24.9C10.15 25.2125 10.55 25.3625 10.95 25.3625C11.35 25.3625 11.75 25.2125 12.0625 24.9L15 21.9501L17.95 24.9C18.5625 25.5125 19.5625 25.5125 20.175 24.9C20.7875 24.2875 20.7875 23.2875 20.175 22.675L17.175 19.675Z" fill="#CC1746"/>
</svg>
