<svg width="31" height="31" viewBox="0 0 31 31" fill="none" xmlns="http://www.w3.org/2000/svg">
<path d="M15.6 30.8C23.8842 30.8 30.6 24.0843 30.6 15.8C30.6 7.51578 23.8842 0.800049 15.6 0.800049C7.3157 0.800049 0.599976 7.51578 0.599976 15.8C0.599976 24.0843 7.3157 30.8 15.6 30.8Z" fill="white"/>
<path d="M13.9 23.3C13.2 22.6 12.5 21.9 11.8 21.2C13.6 19.4 15.3 17.7 17.1 15.9C15.3 14.1 13.6 12.4 11.8 10.6C12.5 9.9 13.2 9.2 13.9 8.5C16.3 10.9 18.8 13.4 21.3 15.9C18.9 18.3 16.4 20.8 13.9 23.3Z" fill="black"/>
</svg>
