<svg width="31" height="31" viewBox="0 0 31 31" fill="none" xmlns="http://www.w3.org/2000/svg">
<path d="M15.5 30.8C23.7843 30.8 30.5 24.0843 30.5 15.8C30.5 7.51578 23.7843 0.800049 15.5 0.800049C7.21573 0.800049 0.5 7.51578 0.5 15.8C0.5 24.0843 7.21573 30.8 15.5 30.8Z" fill="white"/>
<path d="M17.2 23.3C17.9 22.6 18.6 21.9 19.3 21.2C17.5 19.4 15.8 17.7 14 15.9C15.8 14.1 17.5 12.4 19.3 10.6C18.6 9.9 17.9 9.2 17.2 8.5C14.8 10.9 12.3 13.4 9.80005 15.9C12.2 18.3 14.7 20.8 17.2 23.3Z" fill="black"/>
</svg>
