<svg width="47" height="47" viewBox="0 0 47 47" fill="none" xmlns="http://www.w3.org/2000/svg">
<path d="M23.6 46.8C36.3025 46.8 46.6 36.5026 46.6 23.8C46.6 11.0975 36.3025 0.800049 23.6 0.800049C10.8974 0.800049 0.599976 11.0975 0.599976 23.8C0.599976 36.5026 10.8974 46.8 23.6 46.8Z" fill="#F2F1F7"/>
<path d="M21.1 35.2001C20.1 34.2001 19 33.1001 17.9 32.0001C20.6 29.3001 23.3 26.6001 26 23.9001C23.3 21.2001 20.6 18.5001 17.9 15.8001C19 14.7001 20.1 13.6001 21.1 12.6001C24.9 16.4001 28.6 20.1001 32.4 23.9001C28.6 27.6001 24.8 31.4001 21.1 35.2001Z" fill="black"/>
</svg>
