<svg width="47" height="47" viewBox="0 0 47 47" fill="none" xmlns="http://www.w3.org/2000/svg">
<path d="M23.6 46.8C36.3025 46.8 46.6 36.5026 46.6 23.8C46.6 11.0975 36.3025 0.800049 23.6 0.800049C10.8974 0.800049 0.599976 11.0975 0.599976 23.8C0.599976 36.5026 10.8974 46.8 23.6 46.8Z" fill="#F2F1F7"/>
<path d="M26.1 35.2001C27.1 34.2001 28.2 33.1001 29.3 32.0001C26.6 29.3001 23.9 26.6001 21.2 23.9001C23.9 21.2001 26.6 18.5001 29.3 15.8001C28.2 14.7001 27.1 13.6001 26.1 12.6001C22.3 16.4001 18.6 20.1001 14.8 23.9001C18.6 27.6001 22.4 31.4001 26.1 35.2001Z" fill="black"/>
</svg>
