<svg width="41" height="40" viewBox="0 0 41 40" fill="none" xmlns="http://www.w3.org/2000/svg">
<path opacity="0.7" d="M20.1 0C9.09998 0 0.0999756 9 0.0999756 20C0.0999756 31 9.09998 40 20.1 40C31.1 40 40.1 31 40.1 20C40.1 9 31.1 0 20.1 0ZM27.7 21.4C24 23.3 20.3 25.1 16.5 27C15.3 27.6 14.3 26.9 14.3 25.6C14.3 23.7 14.3 21.9 14.3 20C14.3 18.2 14.3 16.3 14.3 14.5C14.3 13.1 15.3 12.5 16.6 13.1C20.3 14.9 24 16.8 27.7 18.7C28.3 19 28.7 19.4 28.7 20.1C28.7 20.7 28.3 21.1 27.7 21.4Z" fill="white"/>
</svg>
