<svg width="30" height="30" viewBox="0 0 30 30" fill="none" xmlns="http://www.w3.org/2000/svg">
<path d="M2.1 2.1C-1.43051e-06 4.2 0 7.6 0 14.4V15.6C0 22.4 -1.43051e-06 25.8 2.1 27.9C4.2 30 7.6 30 14.4 30H15.6C22.4 30 25.8 30 27.9 27.9C30 25.7 30 22.4 30 15.6V14.4C30 7.6 30 4.2 27.9 2.1C25.8 -1.43051e-06 22.4 0 15.6 0H14.4C7.6 0 4.2 -1.43051e-06 2.1 2.1Z" fill="white"/>
<path d="M5.10001 9.1001C5.30001 16.9001 9.20001 21.6001 16 21.6001H16.4V17.1001C18.9 17.4001 20.8 19.2001 21.6 21.6001H25.2C24.2 18.1001 21.7 16.1001 20.1 15.3001C21.7 14.4001 23.9 12.1001 24.5 9.1001H21.3C20.6 11.6001 18.5 13.8001 16.6 14.0001V9.1001H13.4V17.7001C11.4 17.2001 8.90001 14.8001 8.80001 9.1001H5.10001Z" fill="#CC1746"/>
</svg>
